<svg width="14" height="7" viewBox="0 0 14 7" fill="none" xmlns="http://www.w3.org/2000/svg">
  <path
    d="M13.0228 1.14792L7.39779 6.77292C7.34555 6.82522 7.28351 6.8667 7.21523 6.89501C7.14694 6.92332 7.07375 6.93789 6.99982 6.93789C6.9259 6.93789 6.85271 6.92332 6.78442 6.89501C6.71613 6.8667 6.6541 6.82522 6.60186 6.77292L0.976856 1.14792C0.871308 1.04237 0.812012 0.899214 0.812012 0.749947C0.812012 0.600679 0.871308 0.457525 0.976856 0.351978C1.0824 0.24643 1.22556 0.187134 1.37482 0.187134C1.52409 0.187134 1.66725 0.24643 1.77279 0.351978L6.99982 5.57971L12.2269 0.351978C12.2791 0.299716 12.3412 0.258259 12.4094 0.229975C12.4777 0.201691 12.5509 0.187134 12.6248 0.187134C12.6987 0.187134 12.7719 0.201691 12.8402 0.229975C12.9085 0.258259 12.9705 0.299716 13.0228 0.351978C13.0751 0.40424 13.1165 0.466284 13.1448 0.534567C13.1731 0.602851 13.1876 0.676037 13.1876 0.749947C13.1876 0.823856 13.1731 0.897042 13.1448 0.965326C13.1165 1.03361 13.0751 1.09565 13.0228 1.14792Z"
    fill="#8E9AAC"/>
</svg>
